<svg width="1920" height="1080" viewBox="0 0 1920 1080" fill="none" xmlns="http://www.w3.org/2000/svg">
<g id="bg">
<g id="Landing page " clip-path="url(#clip0_806:10)">
<rect width="1920" height="1080" fill="url(#paint0_linear_806:10)"/>
<g id="Group 1">
<g id="Ellipse 4">
<ellipse id="Ellipse 4_2" cx="59.5" cy="1030.5" rx="158.5" ry="157.5" fill="#14C8FF" fill-opacity="0.1"/>
</g>
<path id="Ellipse 3" d="M2064 898.5C2064 1032.43 1957.22 1141 1825.5 1141C1693.78 1141 1587 1032.43 1587 898.5C1587 764.571 1693.78 656 1825.5 656C1957.22 656 2064 764.571 2064 898.5Z" fill="#39005D" fill-opacity="0.1"/>
<path id="Ellipse 9" d="M2048 991.013C2048 1149.51 1560.66 1278 959.5 1278C358.338 1278 -129 1149.51 -129 991.013C-129 832.514 70 1110.5 913.014 1054.79C1756.03 999.076 2048 832.514 2048 991.013Z" fill="white"/>
</g>
</g>
</g>
<defs>
<linearGradient id="paint0_linear_806:10" x1="5.49997" y1="11.5" x2="1920" y2="1080" gradientUnits="userSpaceOnUse">
<stop offset="0.114583" stop-color="#583884"/>
<stop offset="0.458333" stop-color="#3D4B94"/>
<stop offset="0.645833" stop-color="#3563A9"/>
<stop offset="0.802083" stop-color="#2F76B9"/>
<stop offset="0.9993" stop-color="#229DDA"/>
<stop offset="0.9994" stop-color="#288CCC"/>
<stop offset="0.9995" stop-color="#14C8FF"/>
</linearGradient>
<clipPath id="clip0_806:10">
<rect width="1920" height="1080" fill="white"/>
</clipPath>
</defs>
</svg>
