<svg width="56" height="72" viewBox="0 0 56 72" fill="none" xmlns="http://www.w3.org/2000/svg">
<g clip-path="url(#clip0)">
<circle cx="27.5" cy="32.5" r="27.5" fill="#14C8FF"/>
<path d="M35.5021 42.405C35.532 44.2714 34.9543 45.6675 33.769 46.5933C32.6104 47.5187 30.9646 47.9985 28.8315 48.0327C25.4186 48.0875 22.8808 46.9947 21.2179 44.7545C19.5818 42.5138 18.7344 39.567 18.6757 35.9141C18.6663 35.3275 18.6793 34.4739 18.7146 33.3532L16.4749 33.3891C16.2616 33.3926 16.1537 33.3143 16.1511 33.1543C16.1438 32.701 16.3617 32.1508 16.8047 31.5036C17.2477 30.8564 17.7358 30.5285 18.2691 30.52L19.029 30.5078C19.3448 28.5825 19.8776 26.8804 20.6273 25.4015C21.4036 23.9221 22.212 22.7757 23.0524 21.9621C23.9194 21.1481 24.869 20.4928 25.9012 19.9961C27.5415 19.1697 29.2682 18.7419 31.0813 18.7128C32.8944 18.6837 34.0323 18.9588 34.495 19.5382C34.713 19.828 34.8284 20.3729 34.8412 21.1728C34.8537 21.9461 34.7665 22.3342 34.5799 22.3372C34.5532 22.3376 34.4324 22.2862 34.2174 22.183C33.519 21.8741 32.6499 21.7281 31.61 21.7447C29.3436 21.7811 27.5834 22.6095 26.3292 24.2298C25.1017 25.8497 24.2948 27.9163 23.9084 30.4295C25.9344 30.3703 28.6805 30.3129 32.1467 30.2572C32.4133 30.253 32.5481 30.3441 32.5511 30.5308C32.558 30.9574 32.3534 31.5074 31.9375 32.1808C31.5212 32.8276 31.0464 33.1553 30.5131 33.1638L23.634 33.2742C23.6125 33.5946 23.6105 34.3014 23.628 35.3946C23.6451 36.4611 23.85 37.5913 24.2425 38.7852C24.6613 39.9519 25.3973 40.9403 26.4504 41.7501C27.5302 42.5596 28.91 42.9508 30.5898 42.9238C32.2695 42.8969 33.6767 42.5009 34.8112 41.736C34.9428 41.6272 35.062 41.5719 35.1686 41.5702C35.3819 41.5668 35.4931 41.845 35.5021 42.405Z" fill="white"/>
</g>
<defs>
<clipPath id="clip0">
<rect width="56" height="72" fill="white"/>
</clipPath>
</defs>
</svg>
