<svg width="96" height="100" viewBox="0 0 96 100" fill="none" xmlns="http://www.w3.org/2000/svg">
<path opacity="0.08" d="M84 36C84 60 72 72 48 72C24 72 12 60 12 36C12 12 24 0 48 0C72 0 84 12 84 36Z" fill="#0083F5"/>
<g filter="url(#filter0_d_421_18)">
<path d="M80 36C80 57.3333 69.3333 68 48 68C26.6667 68 16 57.3333 16 36C16 14.6667 26.6667 4 48 4C69.3333 4 80 14.6667 80 36Z" fill="#14C8FF"/>
</g>
<path d="M56.69 32H59C61.4311 32 63.7627 33.0536 65.4818 34.9289C67.2009 36.8043 68.1667 39.3478 68.1667 42C68.1667 44.6522 67.2009 47.1957 65.4818 49.0711C63.7627 50.9464 61.4311 52 59 52H42.5C39.7564 52.0022 37.0672 51.1649 34.738 49.5831C32.4088 48.0014 30.533 45.7386 29.3238 43.0519C28.1145 40.3653 27.6203 37.3625 27.8973 34.3847C28.1743 31.407 29.2114 28.5737 30.8907 26.2068C32.57 23.8399 34.8242 22.0343 37.3972 20.9952C39.9702 19.9561 42.7587 19.7251 45.446 20.3286C48.1333 20.932 50.6116 22.3456 52.5992 24.4088C54.5868 26.472 56.0041 29.102 56.69 32Z" stroke="white" stroke-width="2" stroke-linecap="round" stroke-linejoin="round"/>
<defs>
<filter id="filter0_d_421_18" x="0" y="4" width="96" height="96" filterUnits="userSpaceOnUse" color-interpolation-filters="sRGB">
<feFlood flood-opacity="0" result="BackgroundImageFix"/>
<feColorMatrix in="SourceAlpha" type="matrix" values="0 0 0 0 0 0 0 0 0 0 0 0 0 0 0 0 0 0 127 0" result="hardAlpha"/>
<feMorphology radius="8" operator="erode" in="SourceAlpha" result="effect1_dropShadow_421_18"/>
<feOffset dy="16"/>
<feGaussianBlur stdDeviation="12"/>
<feColorMatrix type="matrix" values="0 0 0 0 0 0 0 0 0 0.512 0 0 0 0 0.96 0 0 0 0.2 0"/>
<feBlend mode="normal" in2="BackgroundImageFix" result="effect1_dropShadow_421_18"/>
<feBlend mode="normal" in="SourceGraphic" in2="effect1_dropShadow_421_18" result="shape"/>
</filter>
</defs>
</svg>
