<svg width="96" height="100" viewBox="0 0 96 100" fill="none" xmlns="http://www.w3.org/2000/svg">
<path opacity="0.08" d="M84 36C84 60 72 72 48 72C24 72 12 60 12 36C12 12 24 0 48 0C72 0 84 12 84 36Z" fill="#0083F5"/>
<g filter="url(#filter0_d_445_28)">
<path d="M80 36C80 57.3333 69.3333 68 48 68C26.6667 68 16 57.3333 16 36C16 14.6667 26.6667 4 48 4C69.3333 4 80 14.6667 80 36Z" fill="#14C8FF"/>
</g>
<path fill-rule="evenodd" clip-rule="evenodd" d="M34.5621 15.7174C35.5623 14.6178 36.9188 14 38.3333 14H52.5556C53.0271 14 53.4792 14.2059 53.8126 14.5725L64.4793 26.2997C64.8127 26.6663 65 27.1634 65 27.6818V51.1364C65 52.6915 64.4381 54.1829 63.4379 55.2826C62.4377 56.3822 61.0812 57 59.6667 57H38.3333C36.9188 57 35.5623 56.3822 34.5621 55.2826C33.5619 54.1829 33 52.6915 33 51.1364V19.8636C33 18.3085 33.5619 16.8171 34.5621 15.7174ZM38.3333 17.9091C37.8618 17.9091 37.4097 18.115 37.0763 18.4816C36.7429 18.8481 36.5556 19.3453 36.5556 19.8636V51.1364C36.5556 51.6547 36.7429 52.1519 37.0763 52.5184C37.4097 52.885 37.8618 53.0909 38.3333 53.0909H59.6667C60.1382 53.0909 60.5903 52.885 60.9237 52.5184C61.2571 52.1519 61.4444 51.6547 61.4444 51.1364V28.4914L51.8192 17.9091H38.3333Z" fill="white"/>
<path fill-rule="evenodd" clip-rule="evenodd" d="M52.5556 14C53.5374 14 54.3333 14.8751 54.3333 15.9545V25.7273H63.2222C64.2041 25.7273 65 26.6024 65 27.6818C65 28.7613 64.2041 29.6364 63.2222 29.6364H52.5556C51.5737 29.6364 50.7778 28.7613 50.7778 27.6818V15.9545C50.7778 14.8751 51.5737 14 52.5556 14Z" fill="white"/>
<path fill-rule="evenodd" clip-rule="evenodd" d="M40.1111 37.4545C40.1111 36.3751 40.907 35.5 41.8889 35.5H56.1111C57.093 35.5 57.8889 36.3751 57.8889 37.4545C57.8889 38.534 57.093 39.4091 56.1111 39.4091H41.8889C40.907 39.4091 40.1111 38.534 40.1111 37.4545Z" fill="white"/>
<path fill-rule="evenodd" clip-rule="evenodd" d="M40.1111 45.2727C40.1111 44.1933 40.907 43.3182 41.8889 43.3182H56.1111C57.093 43.3182 57.8889 44.1933 57.8889 45.2727C57.8889 46.3522 57.093 47.2273 56.1111 47.2273H41.8889C40.907 47.2273 40.1111 46.3522 40.1111 45.2727Z" fill="white"/>
<path fill-rule="evenodd" clip-rule="evenodd" d="M40.1111 29.6364C40.1111 28.5569 40.907 27.6818 41.8889 27.6818H45.4444C46.4263 27.6818 47.2222 28.5569 47.2222 29.6364C47.2222 30.7158 46.4263 31.5909 45.4444 31.5909H41.8889C40.907 31.5909 40.1111 30.7158 40.1111 29.6364Z" fill="white"/>
<defs>
<filter id="filter0_d_445_28" x="0" y="4" width="96" height="96" filterUnits="userSpaceOnUse" color-interpolation-filters="sRGB">
<feFlood flood-opacity="0" result="BackgroundImageFix"/>
<feColorMatrix in="SourceAlpha" type="matrix" values="0 0 0 0 0 0 0 0 0 0 0 0 0 0 0 0 0 0 127 0" result="hardAlpha"/>
<feMorphology radius="8" operator="erode" in="SourceAlpha" result="effect1_dropShadow_445_28"/>
<feOffset dy="16"/>
<feGaussianBlur stdDeviation="12"/>
<feColorMatrix type="matrix" values="0 0 0 0 0 0 0 0 0 0.512 0 0 0 0 0.96 0 0 0 0.2 0"/>
<feBlend mode="normal" in2="BackgroundImageFix" result="effect1_dropShadow_445_28"/>
<feBlend mode="normal" in="SourceGraphic" in2="effect1_dropShadow_445_28" result="shape"/>
</filter>
</defs>
</svg>
